<svg xmlns="http://www.w3.org/2000/svg" version="1.1" xmlns:xlink="http://www.w3.org/1999/xlink" xmlns:svgjs="http://svgjs.dev/svgjs" width="128" height="128" viewBox="0 0 128 128"><g transform="matrix(0.8046875,0,0,0.8046875,12.760752631578946,12.760752631578946)"><svg viewBox="0 0 95 95" data-background-color="#293040" preserveAspectRatio="xMidYMid meet" height="128" width="128" xmlns="http://www.w3.org/2000/svg" xmlns:xlink="http://www.w3.org/1999/xlink"><g id="tight-bounds" transform="matrix(1,0,0,1,-0.24049999999999727,-0.24049999999999727)"><svg viewBox="0 0 95.481 95.481" height="95.481" width="95.481"><g><svg viewBox="0 0 95.481 95.481" height="95.481" width="95.481"><g><svg viewBox="0 0 95.481 95.481" height="95.481" width="95.481"><g id="textblocktransform"><svg viewBox="0 0 95.481 95.481" height="95.481" width="95.481" id="textblock"><g><svg viewBox="0 0 95.481 95.481" height="95.481" width="95.481"><g><svg viewBox="0 0 95.481 95.481" height="95.481" width="95.481"><g><svg xmlns="http://www.w3.org/2000/svg" xmlns:xlink="http://www.w3.org/1999/xlink" version="1.1" x="0" y="0" viewBox="1 1 62 62" style="enable-background:new 0 0 64 64;" xml:space="preserve" height="95.481" width="95.481" class="icon-icon-0" data-fill-palette-color="accent" id="icon-0"><g fill="#c9ad8b" data-fill-palette-color="accent"><path d="M63 32.243C63 29.352 60.648 27 57.758 27c-0.993 0-1.936 0.286-2.758 0.798V4c0-1.654-1.346-3-3-3H8C6.346 1 5 2.346 5 4v9H4c-1.654 0-3 1.346-3 3v16c0 1.654 1.346 3 3 3h1v25c0 1.654 1.346 3 3 3h44c1.654 0 3-1.346 3-3V42.414l6.465-6.465C62.455 34.959 63 33.643 63 32.243zM8 3h44c0.552 0 1 0.449 1 1v5H7V4C7 3.449 7.448 3 8 3zM3 32V16c0-0.551 0.448-1 1-1h22c0.552 0 1 0.449 1 1v16c0 0.551-0.448 1-1 1H4C3.448 33 3 32.551 3 32zM53 60c0 0.552-0.448 1-1 1H8c-0.552 0-1-0.448-1-1V35h19c1.654 0 3-1.346 3-3V16c0-1.654-1.346-3-3-3H7v-2h46v18.586l-2 2V25H33v10h14.586L32.058 50.528l-1.236 8.65 8.65-1.236L53 44.414V60zM33.707 53.121l3.172 3.172-3.7 0.528L33.707 53.121zM39 55.586L37.414 54 54 37.414 55.586 39 39 55.586zM36 52.586L34.414 51 51 34.414 52.586 36 36 52.586zM49 33H35v-6h14V33zM60.051 34.535L57 37.586 52.414 33l3.051-3.05 0.001 0C56.077 29.337 56.891 29 57.758 29 59.546 29 61 30.455 61 32.243 61 33.097 60.654 33.932 60.051 34.535z" fill="#000000" data-fill-palette-color="accent"></path><rect x="12" y="5" width="2" height="2" fill="#000000" data-fill-palette-color="accent"></rect><rect x="8" y="5" width="2" height="2" fill="#000000" data-fill-palette-color="accent"></rect><rect x="16" y="5" width="2" height="2" fill="#000000" data-fill-palette-color="accent"></rect><rect x="8.675" y="23" transform="matrix(0.3165 -0.9486 0.9486 0.3165 -12.5139 30.6323)" width="12.649" height="1.999" fill="#000000" data-fill-palette-color="accent"></rect><polygon points="19.293,20.707 22.586,24 19.293,27.293 20.707,28.707 25.414,24 20.707,19.293  " fill="#000000" data-fill-palette-color="accent"></polygon><polygon points="9.293,19.293 4.586,24 9.293,28.707 10.707,27.293 7.414,24 10.707,20.707  " fill="#000000" data-fill-palette-color="accent"></polygon><path d="M51 13H33v10h18V13zM49 21H35v-6h14V21z" fill="#000000" data-fill-palette-color="accent"></path><rect x="9" y="57" width="16" height="2" fill="#000000" data-fill-palette-color="accent"></rect><rect x="9" y="53" width="20" height="2" fill="#000000" data-fill-palette-color="accent"></rect><polygon points="11,51 13,51 13,49 15,49 15,47 13,47 13,37 11,37 11,47 9,47 9,49 11,49  " fill="#000000" data-fill-palette-color="accent"></polygon><polygon points="19,51 21,51 21,41 23,41 23,39 21,39 21,37 19,37 19,39 17,39 17,41 19,41  " fill="#000000" data-fill-palette-color="accent"></polygon><polygon points="31,45 31,43 29,43 29,37 27,37 27,43 25,43 25,45 27,45 27,51 29,51 29,45  " fill="#000000" data-fill-palette-color="accent"></polygon><rect x="27" y="57" width="2" height="2" fill="#000000" data-fill-palette-color="accent"></rect><rect x="49" y="49" width="2" height="2" fill="#000000" data-fill-palette-color="accent"></rect><rect x="49" y="57" width="2" height="2" fill="#000000" data-fill-palette-color="accent"></rect><rect x="49" y="53" width="2" height="2" fill="#000000" data-fill-palette-color="accent"></rect></g></svg></g></svg></g></svg></g></svg></g></svg></g><g></g></svg></g><defs></defs></svg><rect width="95.481" height="95.481" fill="none" stroke="none" visibility="hidden"></rect></g></svg></g></svg>