<svg xmlns="http://www.w3.org/2000/svg" version="1.1" xmlns:xlink="http://www.w3.org/1999/xlink" xmlns:svgjs="http://svgjs.dev/svgjs" width="2000" height="578" viewBox="0 0 2000 578"><g transform="matrix(1,0,0,1,-2.2497461928933262,2.225807017543673)"><svg viewBox="0 0 197 57" data-background-color="#293040" preserveAspectRatio="xMidYMid meet" height="578" width="2000" xmlns="http://www.w3.org/2000/svg" xmlns:xlink="http://www.w3.org/1999/xlink"><g id="tight-bounds" transform="matrix(1,0,0,1,0.22159999999999513,-0.21949999999998226)"><svg viewBox="0 0 196.5568 57.43899999999999" height="57.43899999999999" width="196.5568"><g><svg viewBox="0 0 196.5568 57.43899999999999" height="57.43899999999999" width="196.5568"><g><svg viewBox="0 0 196.5568 57.43899999999999" height="57.43899999999999" width="196.5568"><g id="textblocktransform"><svg viewBox="0 0 196.5568 57.43899999999999" height="57.43899999999999" width="196.5568" id="textblock"><g><svg viewBox="0 0 196.5568 57.43899999999999" height="57.43899999999999" width="196.5568"><g><svg><g></g><g></g></svg></g><g><svg><g><svg></svg></g><g></g></svg></g><g id="text-0"><svg viewBox="0 0 196.5568 57.43899999999999" height="57.43899999999999" width="196.5568"><g transform="matrix(1,0,0,1,0,0)"><svg width="125.55680000000001" viewBox="2.2 -35 77.6 35.5" height="57.43899999999999" data-palette-color="#d5b263"><path d="M23.1 0.5L21.6 0.5Q19.4-4.5 17.15-9.47 14.9-14.45 12.75-19.55L12.75-19.55Q12.05-21.15 11.38-22.78 10.7-24.4 10.08-26.05 9.45-27.7 8.8-29.35L8.8-29.35Q8.8-28.8 8.78-28.25 8.75-27.7 8.75-27.15L8.75-27.15Q8.7-25.35 8.63-22.83 8.55-20.3 8.45-17.43 8.35-14.55 8.3-11.68 8.25-8.8 8.2-6.25L8.2-6.25Q8.15-5.15 8.13-4.05 8.1-2.95 8-2L8-2Q8.95-2.05 9.88-2.1 10.8-2.15 11.75-2.2L11.75-2.2 11.75 0 2.2 0 2.2-1.65Q3.75-1.7 4.48-2.33 5.2-2.95 5.4-4 5.6-5.05 5.65-6.25L5.65-6.25 6.6-29.05Q6.65-30.05 6.68-31.05 6.7-32.05 6.75-33L6.75-33Q5.85-32.95 4.95-32.93 4.05-32.9 3.15-32.85L3.15-32.85 3.15-35 10.8-35 19.4-15.15Q20.05-13.65 20.68-12.15 21.3-10.65 21.98-9.15 22.65-7.65 23.3-6.1L23.3-6.1 23.4-6.1Q23.95-7.45 24.7-9.33 25.45-11.2 25.95-12.55L25.95-12.55Q28.15-18.05 30.53-23.58 32.9-29.1 35.2-35L35.2-35 42.6-35 42.6-33.35Q41.35-33.4 40.55-32.88 39.75-32.35 39.4-31.15 39.05-29.95 39.15-27.9L39.15-27.9 40.45-5.15Q40.55-4.3 40.55-3.5 40.55-2.7 40.55-2.05L40.55-2.05Q41.45-2.1 42.38-2.13 43.3-2.15 44.2-2.2L44.2-2.2 44.2 0 33 0 33-1.65Q34.55-1.7 35.3-2.4 36.05-3.1 36.23-4.4 36.4-5.7 36.3-7.6L36.3-7.6 35.3-24.1Q35.25-24.9 35.2-25.7 35.15-26.5 35.1-27.3 35.05-28.1 35-28.9L35-28.9Q34.85-28.55 34.68-28.15 34.5-27.75 34.35-27.3L34.35-27.3 23.1 0.5ZM59.9 0L48.65 0 48.65-1.65Q50.55-1.75 51.25-2.53 51.95-3.3 52.02-4.67 52.1-6.05 52.1-7.8L52.1-7.8 52.1-29.4Q52.1-30.4 52.15-31.33 52.2-32.25 52.25-33L52.25-33Q51.35-32.95 50.45-32.9 49.55-32.85 48.65-32.8L48.65-32.8 48.65-35 59.9-35 59.9-33.35Q58.05-33.3 57.32-32.5 56.6-31.7 56.52-30.35 56.45-29 56.45-27.2L56.45-27.2 56.45-19 60.2-19 66.45-28.85Q67.1-29.85 68.05-31.05 69-32.25 70-33.05L70-33.05Q69.25-33 68.47-33 67.7-33 66.95-32.95L66.95-32.95 66.95-35 77.7-35 77.7-33.35Q75.6-33.2 73.95-32.65 72.3-32.1 70.8-30.73 69.3-29.35 67.6-26.6L67.6-26.6 62.7-18.8Q64.15-17.95 65.05-16.82 65.95-15.7 66.85-14.55L66.85-14.55 72.45-7.1Q74.35-4.6 75.57-3.43 76.8-2.25 77.77-1.95 78.75-1.65 79.8-1.65L79.8-1.65 79.8 0 73.7 0Q73.2 0 72.37-0.7 71.55-1.4 70.6-2.53 69.65-3.65 68.65-4.9L68.65-4.9 62.65-13Q61.7-14.25 60.75-15.38 59.8-16.5 58.9-17.05L58.9-17.05 56.45-17 56.45-5.95Q56.45-4.6 56.42-3.63 56.4-2.65 56.3-2L56.3-2Q57.2-2.05 58.1-2.1 59-2.15 59.9-2.2L59.9-2.2 59.9 0Z" opacity="1" transform="matrix(1,0,0,1,0,0)" fill="#d5b263" class="wordmark-text-0" data-fill-palette-color="primary"></path></svg></g><g><svg xmlns="http://www.w3.org/2000/svg" xmlns:xlink="http://www.w3.org/1999/xlink" version="1.1" x="139.11780000000002" y="0" viewBox="1 1 62 62" style="enable-background:new 0 0 64 64;" xml:space="preserve" height="57.43899999999999" width="57.43899999999999" class="icon-cg-0" data-fill-palette-color="accent" id="cg-0"><g fill="#c9ad8b" data-fill-palette-color="accent"><path d="M63 32.243C63 29.352 60.648 27 57.758 27c-0.993 0-1.936 0.286-2.758 0.798V4c0-1.654-1.346-3-3-3H8C6.346 1 5 2.346 5 4v9H4c-1.654 0-3 1.346-3 3v16c0 1.654 1.346 3 3 3h1v25c0 1.654 1.346 3 3 3h44c1.654 0 3-1.346 3-3V42.414l6.465-6.465C62.455 34.959 63 33.643 63 32.243zM8 3h44c0.552 0 1 0.449 1 1v5H7V4C7 3.449 7.448 3 8 3zM3 32V16c0-0.551 0.448-1 1-1h22c0.552 0 1 0.449 1 1v16c0 0.551-0.448 1-1 1H4C3.448 33 3 32.551 3 32zM53 60c0 0.552-0.448 1-1 1H8c-0.552 0-1-0.448-1-1V35h19c1.654 0 3-1.346 3-3V16c0-1.654-1.346-3-3-3H7v-2h46v18.586l-2 2V25H33v10h14.586L32.058 50.528l-1.236 8.65 8.65-1.236L53 44.414V60zM33.707 53.121l3.172 3.172-3.7 0.528L33.707 53.121zM39 55.586L37.414 54 54 37.414 55.586 39 39 55.586zM36 52.586L34.414 51 51 34.414 52.586 36 36 52.586zM49 33H35v-6h14V33zM60.051 34.535L57 37.586 52.414 33l3.051-3.05 0.001 0C56.077 29.337 56.891 29 57.758 29 59.546 29 61 30.455 61 32.243 61 33.097 60.654 33.932 60.051 34.535z" fill="#c9ad8b" data-fill-palette-color="accent"></path><rect x="12" y="5" width="2" height="2" fill="#c9ad8b" data-fill-palette-color="accent"></rect><rect x="8" y="5" width="2" height="2" fill="#c9ad8b" data-fill-palette-color="accent"></rect><rect x="16" y="5" width="2" height="2" fill="#c9ad8b" data-fill-palette-color="accent"></rect><rect x="8.675" y="23" transform="matrix(0.3165 -0.9486 0.9486 0.3165 -12.5139 30.6323)" width="12.649" height="1.999" fill="#c9ad8b" data-fill-palette-color="accent"></rect><polygon points="19.293,20.707 22.586,24 19.293,27.293 20.707,28.707 25.414,24 20.707,19.293  " fill="#c9ad8b" data-fill-palette-color="accent"></polygon><polygon points="9.293,19.293 4.586,24 9.293,28.707 10.707,27.293 7.414,24 10.707,20.707  " fill="#c9ad8b" data-fill-palette-color="accent"></polygon><path d="M51 13H33v10h18V13zM49 21H35v-6h14V21z" fill="#c9ad8b" data-fill-palette-color="accent"></path><rect x="9" y="57" width="16" height="2" fill="#c9ad8b" data-fill-palette-color="accent"></rect><rect x="9" y="53" width="20" height="2" fill="#c9ad8b" data-fill-palette-color="accent"></rect><polygon points="11,51 13,51 13,49 15,49 15,47 13,47 13,37 11,37 11,47 9,47 9,49 11,49  " fill="#c9ad8b" data-fill-palette-color="accent"></polygon><polygon points="19,51 21,51 21,41 23,41 23,39 21,39 21,37 19,37 19,39 17,39 17,41 19,41  " fill="#c9ad8b" data-fill-palette-color="accent"></polygon><polygon points="31,45 31,43 29,43 29,37 27,37 27,43 25,43 25,45 27,45 27,51 29,51 29,45  " fill="#c9ad8b" data-fill-palette-color="accent"></polygon><rect x="27" y="57" width="2" height="2" fill="#c9ad8b" data-fill-palette-color="accent"></rect><rect x="49" y="49" width="2" height="2" fill="#c9ad8b" data-fill-palette-color="accent"></rect><rect x="49" y="57" width="2" height="2" fill="#c9ad8b" data-fill-palette-color="accent"></rect><rect x="49" y="53" width="2" height="2" fill="#c9ad8b" data-fill-palette-color="accent"></rect></g></svg></g></svg></g></svg></g></svg></g></svg></g><g></g></svg></g><defs></defs></svg><rect width="196.5568" height="57.43899999999999" fill="none" stroke="none" visibility="hidden"></rect></g></svg></g></svg>